<svg width="29" height="28" viewBox="0 0 29 28" fill="none" xmlns="http://www.w3.org/2000/svg">
<g clip-path="url(#clip0_686_17954)">
<mask id="mask0_686_17954" style="mask-type:luminance" maskUnits="userSpaceOnUse" x="0" y="0" width="29" height="28">
<path d="M0.758423 0L28.7584 0L28.7584 28L0.758423 28L0.758423 0Z" fill="white"/>
</mask>
<g mask="url(#mask0_686_17954)">
<path fill-rule="evenodd" clip-rule="evenodd" d="M0.758423 14.0782C0.758423 21.0397 5.81359 26.8263 12.4251 28L12.4251 17.8885L8.92509 17.8885L8.92509 14L12.4251 14L12.4251 10.8885C12.4251 7.3885 14.6803 5.44483 17.8699 5.44483C18.8803 5.44483 19.9699 5.6 20.9803 5.75517L20.9803 9.33333L19.1918 9.33333C17.4803 9.33333 17.0918 10.1885 17.0918 11.2782L17.0918 14L20.8251 14L20.2033 17.8885L17.0918 17.8885L17.0918 28C23.7033 26.8263 28.7584 21.0397 28.7584 14.0782C28.7584 6.335 22.4584 0 14.7584 0C7.05842 0 0.758423 6.335 0.758423 14.0782Z" fill="#4B5563"/>
</g>
</g>
<defs>
<clipPath id="clip0_686_17954">
<rect width="28" height="28" fill="white" transform="translate(0.758423)"/>
</clipPath>
</defs>
</svg>
