<svg width="33" height="32" viewBox="0 0 33 32" fill="none" xmlns="http://www.w3.org/2000/svg">
<path d="M18.1291 2.66602C19.6291 2.67002 20.3904 2.67802 21.0477 2.69668L21.3064 2.70602C21.6051 2.71668 21.8997 2.73002 22.2557 2.74602C23.6744 2.81268 24.6424 3.03668 25.4917 3.36602C26.3717 3.70468 27.1131 4.16335 27.8544 4.90335C28.5327 5.56966 29.0573 6.37598 29.3917 7.26602C29.7211 8.11535 29.9451 9.08335 30.0117 10.5033C30.0277 10.858 30.0411 11.1527 30.0517 11.4527L30.0597 11.7113C30.0797 12.3673 30.0877 13.1287 30.0904 14.6287L30.0917 15.6234L30.0917 17.37C30.095 18.3426 30.0848 19.3151 30.0611 20.2873L30.0531 20.546C30.0424 20.846 30.0291 21.1407 30.0131 21.4953C29.9464 22.9153 29.7197 23.882 29.3917 24.7327C29.0573 25.6227 28.5327 26.429 27.8544 27.0954C27.1881 27.7736 26.3818 28.2983 25.4917 28.6327C24.6424 28.962 23.6744 29.186 22.2557 29.2527L21.3064 29.2927L21.0477 29.3007C20.3904 29.3193 19.6291 29.3287 18.1291 29.3314L17.1344 29.3327L15.3891 29.3327C14.4161 29.3361 13.4431 29.3259 12.4704 29.302L12.2117 29.294C11.8952 29.282 11.5788 29.2683 11.2624 29.2527C9.84374 29.186 8.87574 28.962 8.02507 28.6327C7.13551 28.2981 6.32967 27.7734 5.66374 27.0954C4.985 26.4292 4.45989 25.6228 4.12507 24.7327C3.79574 23.8833 3.57174 22.9153 3.50507 21.4953L3.46507 20.546L3.45841 20.2873C3.43383 19.3151 3.42272 18.3426 3.42507 17.37L3.42507 14.6287C3.42138 13.6561 3.43116 12.6836 3.45441 11.7113L3.46374 11.4527C3.47441 11.1527 3.48774 10.858 3.50374 10.5033C3.57041 9.08335 3.79441 8.11668 4.12374 7.26602C4.45933 6.37561 4.98537 5.56926 5.66507 4.90335C6.33061 4.22541 7.13599 3.70078 8.02507 3.36602C8.87574 3.03668 9.84241 2.81268 11.2624 2.74602C11.6171 2.73002 11.9131 2.71668 12.2117 2.70602L12.4704 2.69802C13.4427 2.67433 14.4152 2.6641 15.3877 2.66735L18.1291 2.66602ZM16.7584 9.33268C14.9903 9.33268 13.2946 10.0351 12.0444 11.2853C10.7941 12.5355 10.0917 14.2312 10.0917 15.9993C10.0917 17.7675 10.7941 19.4632 12.0444 20.7134C13.2946 21.9636 14.9903 22.666 16.7584 22.666C18.5265 22.666 20.2222 21.9636 21.4725 20.7134C22.7227 19.4632 23.4251 17.7675 23.4251 15.9993C23.4251 14.2312 22.7227 12.5355 21.4725 11.2853C20.2222 10.0351 18.5265 9.33268 16.7584 9.33268ZM16.7584 11.9993C17.2837 11.9993 17.8039 12.1026 18.2892 12.3036C18.7745 12.5045 19.2155 12.7991 19.587 13.1705C19.9585 13.5418 20.2532 13.9827 20.4543 14.468C20.6554 14.9533 20.759 15.4734 20.7591 15.9987C20.7592 16.524 20.6558 17.0441 20.4548 17.5295C20.2539 18.0148 19.9593 18.4558 19.588 18.8273C19.2166 19.1988 18.7757 19.4935 18.2904 19.6946C17.8052 19.8957 17.285 19.9993 16.7597 19.9993C15.6989 19.9993 14.6815 19.5779 13.9313 18.8278C13.1812 18.0776 12.7597 17.0602 12.7597 15.9993C12.7597 14.9385 13.1812 13.9211 13.9313 13.1709C14.6815 12.4208 15.6989 11.9993 16.7597 11.9993M23.7597 7.33268C23.3177 7.33268 22.8938 7.50828 22.5812 7.82084C22.2687 8.1334 22.0931 8.55732 22.0931 8.99935C22.0931 9.44138 22.2687 9.8653 22.5812 10.1779C22.8938 10.4904 23.3177 10.666 23.7597 10.666C24.2018 10.666 24.6257 10.4904 24.9383 10.1779C25.2508 9.8653 25.4264 9.44138 25.4264 8.99935C25.4264 8.55732 25.2508 8.1334 24.9383 7.82084C24.6257 7.50828 24.2018 7.33268 23.7597 7.33268Z" fill="#4B5563"/>
</svg>
