<svg width="29" height="28" viewBox="0 0 29 28" fill="none" xmlns="http://www.w3.org/2000/svg">
<g clip-path="url(#clip0_686_17947)">
<path d="M19.3563 20.9568C19.6246 18.7647 18.2129 17.367 14.4854 16.177C12.6794 15.561 11.8289 14.7537 11.8488 13.6442C11.9246 12.4122 13.0714 11.515 14.5928 11.4858C15.7909 11.4988 16.9594 11.8595 17.9563 12.5242C18.0916 12.6082 18.1861 12.5942 18.2631 12.4775C18.3681 12.3095 18.6306 11.9023 18.7181 11.7542C18.7776 11.6608 18.7893 11.5372 18.6388 11.4275C18.4229 11.2677 17.8174 10.9433 17.4919 10.8068C16.5649 10.4145 15.5691 10.2106 14.5624 10.2072C12.3341 10.2165 10.5806 11.6247 10.4324 13.5042C10.3375 14.8622 11.0103 15.9616 12.4508 16.8023C12.7576 16.9797 14.4108 17.6377 15.0688 17.843C17.1384 18.487 18.2129 19.642 17.9598 20.9895C17.7299 22.211 16.4443 23.0008 14.6721 23.0242C13.2686 22.9705 12.0039 22.3977 11.0239 21.6358L10.8594 21.5075C10.7381 21.4142 10.6051 21.42 10.5246 21.5425C10.4663 21.6323 10.0859 22.1807 9.99027 22.3242C9.90044 22.4502 9.94944 22.5202 10.0428 22.5972C10.4511 22.939 10.9959 23.3123 11.3658 23.5013C12.3902 24.0233 13.5171 24.313 14.6663 24.3495C15.4936 24.3888 16.3196 24.2479 17.0871 23.9365C18.3646 23.394 19.1906 22.3102 19.3563 20.9568ZM14.7584 1.6345C12.3458 1.6345 10.3788 3.9095 10.2866 6.75617L19.2291 6.75617C19.1346 3.90833 17.1688 1.63333 14.7584 1.63333M23.9179 27.9977L23.8246 27.9988L5.40994 27.9965C4.15694 27.9498 3.23644 26.9348 3.11044 25.6737L3.09877 25.4462L2.27394 7.3325C2.26853 7.25973 2.27802 7.18663 2.30182 7.11765C2.32563 7.04868 2.36325 6.98528 2.41239 6.93134C2.46153 6.87739 2.52115 6.83404 2.58761 6.80392C2.65407 6.7738 2.72598 6.75755 2.79894 6.75617L8.6031 6.75617C8.74427 2.996 11.4451 0 14.7584 0C18.0718 0 20.7703 2.99717 20.9126 6.755L26.7086 6.755C26.7812 6.75523 26.853 6.77018 26.9196 6.79895C26.9863 6.82772 27.0464 6.86972 27.0964 6.9224C27.1463 6.97507 27.1851 7.03734 27.2103 7.10542C27.2354 7.17351 27.2466 7.246 27.2429 7.3185L26.3411 25.5045L26.3329 25.6573C26.2233 26.9337 25.1908 27.9638 23.9179 27.9977Z" fill="#4B5563"/>
</g>
<defs>
<clipPath id="clip0_686_17947">
<rect width="28" height="28" fill="white" transform="translate(0.758423)"/>
</clipPath>
</defs>
</svg>
