<svg width="33" height="32" viewBox="0 0 33 32" fill="none" xmlns="http://www.w3.org/2000/svg">
<path d="M30.0784 8.72868C30.066 8.15671 30.0202 7.58596 29.9411 7.01935C29.8455 6.51544 29.6827 6.02663 29.4571 5.56602C28.9638 4.59159 28.1726 3.79989 27.1984 3.30602C26.7407 3.08165 26.2551 2.91933 25.7544 2.82335C25.1835 2.74286 24.6083 2.69611 24.0318 2.68335C23.7878 2.67402 23.4718 2.67002 23.3251 2.67002L10.1944 2.66602C10.0478 2.66602 9.73178 2.67002 9.48778 2.67935C8.91581 2.69175 8.34505 2.73761 7.77844 2.81668C7.27453 2.91228 6.78572 3.07507 6.32511 3.30068C5.35068 3.79398 4.55898 4.58521 4.06511 5.55935C3.84074 6.01708 3.67842 6.5027 3.58244 7.00335C3.50151 7.57429 3.45431 8.14951 3.44111 8.72602C3.43311 8.97002 3.42778 9.28602 3.42778 9.43268L3.42511 22.5634C3.42511 22.71 3.42911 23.026 3.43844 23.27C3.45084 23.842 3.4967 24.4127 3.57578 24.9794C3.67138 25.4833 3.83416 25.9721 4.05978 26.4327C4.55307 27.4071 5.3443 28.1988 6.31844 28.6927C6.77618 28.9171 7.26179 29.0794 7.76244 29.1754C8.33341 29.2558 8.90864 29.3026 9.48511 29.3153C9.72911 29.3247 10.0451 29.3287 10.1918 29.3287L23.3224 29.3314C23.4691 29.3314 23.7851 29.3274 24.0291 29.318C24.6011 29.3056 25.1718 29.2598 25.7384 29.1807C26.2424 29.0851 26.7312 28.9223 27.1918 28.6967C28.1667 28.2036 28.9589 27.4124 29.4531 26.438C29.6775 25.9803 29.8398 25.4947 29.9358 24.994C30.0167 24.4231 30.0639 23.8479 30.0771 23.2714C30.0851 23.0273 30.0904 22.7113 30.0904 22.5647L30.0918 9.43535C30.0918 9.28868 30.0878 8.97268 30.0784 8.72868ZM17.0478 25.2754L17.0438 25.2754C15.4565 25.2765 13.8944 24.8785 12.5011 24.118L7.46111 25.4394L8.81044 20.5154C7.76571 18.7024 7.34827 16.5955 7.62284 14.5212C7.89741 12.4469 8.84865 10.5211 10.3291 9.04246C11.8095 7.56379 13.7364 6.61484 15.811 6.34274C17.8857 6.07064 19.9921 6.49059 21.8038 7.53747C23.6154 8.58436 25.0311 10.1997 25.8313 12.133C26.6315 14.0664 26.7715 16.2097 26.2296 18.2307C25.6877 20.2517 24.4942 22.0375 22.8342 23.3112C21.1741 24.5848 19.1402 25.2752 17.0478 25.2754Z" fill="#4B5563"/>
<path d="M17.0518 7.86852C15.6399 7.86811 14.2537 8.24596 13.0373 8.96277C11.8209 9.67958 10.8187 10.7092 10.1351 11.9445C9.4514 13.1798 9.11116 14.5758 9.14974 15.9871C9.18832 17.3985 9.6043 18.7737 10.3544 19.9699L10.5424 20.2685L9.74377 23.1832L12.7344 22.3992L13.0224 22.5699C14.2394 23.292 15.6287 23.6725 17.0438 23.6712L17.0478 23.6712C19.1435 23.6715 21.1536 22.8394 22.6357 21.3577C24.1179 19.876 24.9507 17.8663 24.9511 15.7705C24.9515 13.6748 24.1193 11.6647 22.6376 10.1826C21.1559 8.70041 19.1462 7.86754 17.0504 7.86719L17.0518 7.86852ZM21.6971 19.1619C21.5226 19.4507 21.29 19.7002 21.0142 19.8946C20.7383 20.089 20.4251 20.224 20.0944 20.2912C19.5953 20.3769 19.083 20.345 18.5984 20.1979C18.1386 20.0553 17.6868 19.8879 17.2451 19.6965C15.6047 18.8733 14.2066 17.6378 13.1878 16.1112C12.6318 15.4046 12.2944 14.551 12.2171 13.6552C12.2109 13.2855 12.2817 12.9186 12.425 12.5777C12.5682 12.2369 12.7807 11.9295 13.0491 11.6752C13.1287 11.585 13.226 11.512 13.3349 11.4609C13.4439 11.4097 13.5621 11.3815 13.6824 11.3779C13.8398 11.3779 13.9984 11.3779 14.1371 11.3859C14.2838 11.3925 14.4784 11.3299 14.6704 11.7939C14.8704 12.2685 15.3451 13.4379 15.4038 13.5565C15.4412 13.6188 15.4626 13.6894 15.4661 13.762C15.4696 13.8346 15.455 13.9069 15.4238 13.9725C15.3642 14.1153 15.2843 14.2487 15.1864 14.3685C15.0664 14.5072 14.9371 14.6779 14.8304 14.7845C14.7104 14.9032 14.5878 15.0312 14.7251 15.2685C15.0823 15.8789 15.5276 16.4333 16.0464 16.9139C16.6105 17.414 17.257 17.8128 17.9571 18.0925C18.1944 18.2125 18.3331 18.1912 18.4718 18.0325C18.6104 17.8739 19.0651 17.3392 19.2238 17.1019C19.3824 16.8645 19.5398 16.9045 19.7571 16.9832C19.9744 17.0619 21.1438 17.6365 21.3811 17.7565C21.6184 17.8765 21.7771 17.9339 21.8358 18.0325C21.8999 18.4145 21.8517 18.8068 21.6971 19.1619Z" fill="#4B5563"/>
</svg>
