<svg width="32" height="32" viewBox="0 0 32 32" fill="none" xmlns="http://www.w3.org/2000/svg">
<path d="M29.32 8.72917C29.3076 8.1572 29.2617 7.58645 29.1826 7.01984C29.087 6.51592 28.9242 6.02712 28.6986 5.5665C28.2053 4.59207 27.4141 3.80038 26.44 3.3065C25.9822 3.08214 25.4966 2.91982 24.996 2.82384C24.425 2.74335 23.8498 2.6966 23.2733 2.68384C23.0293 2.6745 22.7133 2.6705 22.5666 2.6705L9.43596 2.6665C9.28929 2.6665 8.97329 2.6705 8.72929 2.67984C8.15732 2.69224 7.58657 2.73809 7.01996 2.81717C6.51605 2.91277 6.02724 3.07556 5.56663 3.30117C4.5922 3.79447 3.8005 4.5857 3.30663 5.55984C3.08226 6.01757 2.91994 6.50319 2.82396 7.00384C2.74302 7.57478 2.69583 8.15 2.68263 8.7265C2.67463 8.9705 2.66929 9.2865 2.66929 9.43317L2.66663 22.5638C2.66663 22.7105 2.67063 23.0265 2.67996 23.2705C2.69236 23.8425 2.73822 24.4132 2.81729 24.9798C2.91289 25.4838 3.07568 25.9726 3.30129 26.4332C3.79459 27.4076 4.58582 28.1993 5.55996 28.6932C6.01769 28.9175 6.50331 29.0799 7.00396 29.1758C7.57493 29.2563 8.15015 29.3031 8.72663 29.3158C8.97063 29.3252 9.28663 29.3292 9.43329 29.3292L22.564 29.3318C22.7106 29.3318 23.0266 29.3278 23.2706 29.3185C23.8426 29.3061 24.4133 29.2602 24.98 29.1812C25.4839 29.0856 25.9727 28.9228 26.4333 28.6972C27.4082 28.2041 28.2004 27.4128 28.6946 26.4385C28.919 25.9808 29.0813 25.4952 29.1773 24.9945C29.2582 24.4236 29.3054 23.8483 29.3186 23.2718C29.3266 23.0278 29.332 22.7118 29.332 22.5652L29.3333 9.43584C29.3333 9.28917 29.3293 8.97317 29.32 8.72917ZM16.2893 25.2758L16.2853 25.2758C14.698 25.277 13.1359 24.879 11.7426 24.1185L6.70263 25.4398L8.05196 20.5158C7.00723 18.7029 6.58979 16.596 6.86436 14.5217C7.13893 12.4474 8.09017 10.5216 9.57059 9.04295C11.051 7.56428 12.9779 6.61533 15.0525 6.34323C17.1272 6.07113 19.2336 6.49108 21.0453 7.53796C22.8569 8.58485 24.2726 10.2002 25.0728 12.1335C25.873 14.0669 26.013 16.2102 25.4711 18.2312C24.9293 20.2522 23.7358 22.038 22.0757 23.3117C20.4156 24.5853 18.3817 25.2757 16.2893 25.2758Z" fill="white"/>
<path d="M16.2933 7.86803C14.8814 7.86762 13.4952 8.24547 12.2788 8.96228C11.0624 9.6791 10.0603 10.7087 9.37659 11.944C8.69292 13.1793 8.35268 14.5753 8.39126 15.9866C8.42983 17.398 8.84582 18.7732 9.59595 19.9694L9.78395 20.268L8.98528 23.1827L11.976 22.3987L12.2639 22.5694C13.4809 23.2915 14.8702 23.672 16.2853 23.6707L16.2893 23.6707C18.385 23.6711 20.3951 22.8389 21.8772 21.3572C23.3594 19.8755 24.1923 17.8658 24.1926 15.77C24.193 13.6743 23.3608 11.6642 21.8791 10.1821C20.3975 8.69992 18.3877 7.86705 16.2919 7.8667L16.2933 7.86803ZM20.9386 19.1614C20.7641 19.4502 20.5316 19.6997 20.2557 19.8941C19.9798 20.0885 19.6667 20.2235 19.3359 20.2907C18.8368 20.3765 18.3246 20.3445 17.84 20.1974C17.3801 20.0548 16.9283 19.8875 16.4866 19.696C14.8463 18.8728 13.4481 17.6373 12.4293 16.1107C11.8733 15.4041 11.5359 14.5505 11.4586 13.6547C11.4525 13.285 11.5232 12.9181 11.6665 12.5772C11.8097 12.2364 12.0223 11.929 12.2906 11.6747C12.3702 11.5845 12.4675 11.5115 12.5765 11.4604C12.6854 11.4092 12.8037 11.381 12.9239 11.3774C13.0813 11.3774 13.24 11.3774 13.3786 11.3854C13.5253 11.392 13.7199 11.3294 13.912 11.7934C14.1119 12.268 14.5866 13.4374 14.6453 13.556C14.6827 13.6183 14.7041 13.6889 14.7076 13.7615C14.7111 13.8341 14.6966 13.9064 14.6653 13.972C14.6057 14.1148 14.5258 14.2482 14.4279 14.368C14.308 14.5067 14.1786 14.6774 14.0719 14.784C13.9519 14.9027 13.8293 15.0307 13.9666 15.268C14.3239 15.8784 14.7691 16.4328 15.2879 16.9134C15.8521 17.4136 16.4985 17.8123 17.1986 18.092C17.436 18.212 17.5746 18.1907 17.7133 18.032C17.8519 17.8734 18.3066 17.3387 18.4653 17.1014C18.624 16.864 18.7813 16.904 18.9986 16.9827C19.216 17.0614 20.3853 17.636 20.6226 17.756C20.8599 17.876 21.0186 17.9334 21.0773 18.032C21.1414 18.414 21.0932 18.8063 20.9386 19.1614Z" fill="white"/>
</svg>
